<?xml version="1.0" encoding="UTF-8"?>
<svg width="16px" height="16px" viewBox="0 0 16 16" version="1.1" xmlns="http://www.w3.org/2000/svg" xmlns:xlink="http://www.w3.org/1999/xlink">
    <!-- Generator: Sketch 43.2 (39069) - http://www.bohemiancoding.com/sketch -->
    <title>Shape</title>
    <desc>Created with Sketch.</desc>
    <defs></defs>
    <g id="Welcome" stroke="none" stroke-width="1" fill="none" fill-rule="evenodd">
        <g id="Home-Page" transform="translate(-416.000000, -2323.000000)" fill-rule="nonzero" fill="#1B1B1B">
            <g id="Fotter" transform="translate(0.000000, 2250.000000)">
                <g id="info" transform="translate(334.000000, 72.000000)">
                    <g id="call" transform="translate(82.000000, 0.000000)">
                        <g id="ic_call" transform="translate(0.000000, 1.000000)">
                            <path d="M9.08,12.7822222 L11.0355556,10.8222222 C11.28,10.5777778 11.6311111,10.5066667 11.9377778,10.6044444 C12.9333333,10.9333333 14.0044444,11.1111111 15.1111111,11.1111111 C15.6044444,11.1111111 16,11.5066667 16,12 L16,15.1111111 C16,15.6044444 15.6044444,16 15.1111111,16 C6.76444444,16 0,9.23555556 0,0.888888889 C0,0.395555556 0.4,0 0.888888889,0 L4,0 C4.49333333,0 4.88888889,0.395555556 4.88888889,0.888888889 C4.88888889,1.99555556 5.06666667,3.06666667 5.39555556,4.06222222 C5.49333333,4.36888889 5.42222222,4.72 5.17777778,4.96444444 L3.22222222,6.92888889 C4.50222222,9.44444444 6.56,11.5022222 9.08,12.7822222 Z" id="Shape"></path>
                        </g>
                    </g>
                </g>
            </g>
        </g>
    </g>
</svg>