<?xml version="1.0" encoding="UTF-8"?>
<svg width="20px" height="16px" viewBox="0 0 20 16" version="1.1" xmlns="http://www.w3.org/2000/svg" xmlns:xlink="http://www.w3.org/1999/xlink">
    <!-- Generator: Sketch 43.2 (39069) - http://www.bohemiancoding.com/sketch -->
    <title>Shape</title>
    <desc>Created with Sketch.</desc>
    <defs></defs>
    <g id="Welcome" stroke="none" stroke-width="1" fill="none" fill-rule="evenodd">
        <g id="Home-Page" transform="translate(-444.000000, -2341.000000)" fill-rule="nonzero" fill="#FFFFFF">
            <g id="Fotter" transform="translate(0.000000, 2250.000000)">
                <g id="info" transform="translate(362.000000, 60.000000)">
                    <g id="mail" transform="translate(82.000000, 29.000000)">
                        <g id="ic_mail" transform="translate(0.000000, 2.000000)">
                            <path d="M18,0 L2,0 C0.895,0 0.01,0.895 0.01,2 L0,14 C0,15.105 0.895,16 2,16 L18,16 C19.105,16 20,15.105 20,14 L20,2 C20,0.895 19.105,0 18,0 Z M18,4 L10,9 L2,4 L2,2 L10,7 L18,2 L18,4 Z" id="Shape"></path>
                        </g>
                    </g>
                </g>
            </g>
        </g>
    </g>
</svg>