<?xml version="1.0" encoding="UTF-8"?>
<svg width="100px" height="100px" viewBox="0 0 100 100" version="1.1" xmlns="http://www.w3.org/2000/svg" xmlns:xlink="http://www.w3.org/1999/xlink">
    <!-- Generator: Sketch 43.2 (39069) - http://www.bohemiancoding.com/sketch -->
    <title>Shape</title>
    <desc>Created with Sketch.</desc>
    <defs></defs>
    <g id="Page-1" stroke="none" stroke-width="1" fill="none" fill-rule="evenodd">
        <g id="iconmonstr-user-20" fill-rule="nonzero" fill="#7F8C8D">
            <path d="M50,0 C22.3875,0 0,22.3875 0,50 C0,77.6125 22.3875,100 50,100 C77.6125,100 100,77.6125 100,50 C100,22.3875 77.6125,0 50,0 Z M82.3041667,76.2708333 C81.2166667,73.8291667 79.0166667,72.1416667 74.5083333,71.1 C64.9541667,68.8958333 56.0583333,66.9625 60.3708333,58.8291667 C73.475,34.0708333 63.8416667,20.8333333 50,20.8333333 C35.8833333,20.8333333 26.4833333,34.5791667 39.6291667,58.8291667 C44.0708333,67.0125 34.8458333,68.9416667 25.4916667,71.1 C20.975,72.1416667 18.7916667,73.8416667 17.7125,76.2916667 C11.8583333,69.1125 8.33333333,59.9625 8.33333333,50 C8.33333333,27.025 27.025,8.33333333 50,8.33333333 C72.975,8.33333333 91.6666667,27.025 91.6666667,50 C91.6666667,59.9541667 88.1458333,69.0958333 82.3041667,76.2708333 Z" id="Shape"></path>
        </g>
    </g>
</svg>